Coordinates
version=1
nRows=11
nColumns=63
inDegrees=yes

Units are S.I. units (second, meters, Newtons, ...)
If the header above contains a line with 'inDegrees', this indicates whether rotational values are in degrees (yes) or radians (no).

endheader
time	pelvis_tilt	pelvis_list	pelvis_rotation	pelvis_tx	pelvis_ty	pelvis_tz	hip_flexion_r	hip_adduction_r	hip_rotation_r	knee_angle_r	knee_angle_r_beta	ankle_angle_r	subtalar_angle_r	mtp_angle_r	hip_flexion_l	hip_adduction_l	hip_rotation_l	knee_angle_l	knee_angle_l_beta	ankle_angle_l	subtalar_angle_l	mtp_angle_l	L5_S1_Flex_Ext	L5_S1_Lat_Bending	L5_S1_axial_rotation	L4_L5_Flex_Ext	L4_L5_Lat_Bending	L4_L5_axial_rotation	L3_L4_Flex_Ext	L3_L4_Lat_Bending	L3_L4_axial_rotation	L2_L3_Flex_Ext	L2_L3_Lat_Bending	L2_L3_axial_rotation	L1_L2_Flex_Ext	L1_L2_Lat_Bending	L1_L2_axial_rotation	L1_T12_Flex_Ext	L1_T12_Lat_Bending	L1_T12_axial_rotation	Abs_r3	Abs_r2	Abs_r1	Abs_t1	Abs_t2	neck_flexion	neck_bending	neck_rotation	arm_flex_r	arm_add_r	arm_rot_r	elbow_flex_r	pro_sup_r	wrist_flex_r	wrist_dev_r	arm_flex_l	arm_add_l	arm_rot_l	elbow_flex_l	pro_sup_l	wrist_flex_l	wrist_dev_l
1.895833	17.725760	-36.218739	113.451229	0.097066	0.121065	1.014184	105.816866	-2.610265	-13.372140	95.214885	1.661813	53.172788	-6.643816	0.000000	111.781831	1.944620	10.153132	99.315969	1.733391	50.255665	-1.067590	0.000000	-0.543373	0.848789	-0.038137	-1.009098	1.128889	-0.040521	-0.892707	2.063746	-0.040521	-0.621021	2.063746	-0.033370	-0.504576	1.730850	-0.030987	-0.310483	1.314774	-0.028603	-3.881258	9.601671	-0.212108	0.000000	0.000000	13.823301	2.612236	11.959928	23.626511	-27.563500	4.290750	106.409566	88.561473	-12.715718	-7.249337	14.462300	-16.951717	-4.259983	113.236948	89.436007	-13.799820	-11.802445
1.916667	13.744194	-37.708676	111.093459	0.100774	0.119818	1.013778	107.169123	-1.670093	-9.952712	96.050377	1.676395	52.488757	-7.390201	0.000000	111.493393	0.862571	6.855396	98.946255	1.726938	50.165380	-0.950838	0.000000	-0.517449	0.365509	-0.053374	-0.960954	0.486127	-0.056709	-0.850117	0.888699	-0.056709	-0.591392	0.888699	-0.046702	-0.480503	0.745347	-0.043366	-0.295670	0.566174	-0.040030	-3.696085	4.134715	-0.296848	0.000000	0.000000	14.203171	4.237459	9.847645	22.599472	-25.323304	3.527911	106.013794	88.596935	-12.405264	-7.972031	15.087014	-19.335718	-3.757229	113.744402	89.423421	-13.796078	-10.949470
1.937500	9.694332	-39.209834	108.719815	0.104620	0.118621	1.013445	108.523194	-0.724146	-6.484135	96.896978	1.691171	51.830392	-8.107540	0.000000	111.167107	-0.264968	3.501236	98.562284	1.720236	50.057911	-0.804409	0.000000	-0.494989	-0.127792	-0.073318	-0.919244	-0.169963	-0.077900	-0.813218	-0.310713	-0.077900	-0.565723	-0.310713	-0.064153	-0.459647	-0.260593	-0.059571	-0.282837	-0.197949	-0.054989	-3.535658	-1.445604	-0.407773	0.000000	0.000000	14.572573	5.954826	7.589633	21.534199	-23.045001	2.725399	105.654936	88.642473	-12.146904	-8.636167	15.838169	-21.794829	-3.201625	114.317223	89.411392	-13.754833	-9.789835
1.958333	5.679317	-40.729171	106.350323	0.108539	0.117377	1.013225	109.894383	0.235727	-3.053609	97.720490	1.705544	51.211413	-8.759767	0.000000	110.859840	-1.436231	0.172612	98.175370	1.713483	49.953486	-0.661692	0.000000	-0.467966	-0.619274	-0.087098	-0.869059	-0.823634	-0.092541	-0.768821	-1.505702	-0.092541	-0.534838	-1.505702	-0.076210	-0.434553	-1.262823	-0.070767	-0.267396	-0.959255	-0.065323	-3.342633	-7.005347	-0.484411	0.000000	0.000000	14.885724	7.723599	5.314785	20.421616	-20.790772	1.877831	105.351648	88.698203	-11.994110	-9.328067	16.709280	-24.246345	-2.605400	114.919390	89.400966	-13.588789	-8.352481
1.979167	1.770802	-42.190295	104.039920	0.112393	0.116055	1.013142	111.216749	1.165691	0.253491	98.529995	1.719673	50.635447	-9.324599	0.000000	110.555092	-2.621112	-3.062436	97.817721	1.707241	49.866019	-0.489849	0.000000	-0.444869	-1.097862	-0.099443	-0.826166	-1.460157	-0.105658	-0.730875	-2.669343	-0.105658	-0.508441	-2.669343	-0.087013	-0.413105	-2.238761	-0.080798	-0.254198	-1.700589	-0.074582	-3.177655	-12.419240	-0.553073	0.000000	0.000000	15.140785	9.496512	3.042250	19.324580	-18.614587	1.029442	105.085163	88.767640	-11.923770	-10.017156	17.677021	-26.634169	-2.004538	115.553745	89.394292	-13.319453	-6.624513
2.000000	-1.802773	-43.596442	101.881713	0.116087	0.114546	1.013261	112.520399	2.081452	3.282839	99.266637	1.732530	50.106945	-9.839765	0.000000	110.363712	-3.783566	-6.027643	97.516212	1.701979	49.783895	-0.364082	0.000000	-0.415537	-1.540100	-0.104311	-0.771694	-2.048333	-0.110830	-0.682686	-3.744598	-0.110830	-0.474917	-3.744598	-0.091272	-0.385868	-3.140571	-0.084753	-0.237438	-2.385614	-0.078233	-2.968141	-17.421915	-0.580146	0.000000	0.000000	15.315681	11.187155	0.967166	18.292529	-16.617483	0.266588	104.854845	88.843171	-12.040561	-10.845288	18.664944	-28.843266	-1.423044	116.205330	89.384936	-12.992429	-4.725401
2.020833	-4.729059	-44.747916	100.064250	0.119155	0.113007	1.013581	113.630982	2.891330	5.707883	99.871585	1.743088	49.657345	-10.236819	0.000000	110.254074	-4.801476	-8.435592	97.296344	1.698142	49.727312	-0.205058	0.000000	-0.389405	-1.900669	-0.103841	-0.723164	-2.527890	-0.110331	-0.639754	-4.621287	-0.110331	-0.445051	-4.621287	-0.090861	-0.361602	-3.875844	-0.084371	-0.222506	-2.944136	-0.077881	-2.781482	-21.500748	-0.577531	0.000000	0.000000	15.465231	12.606387	-0.797732	17.498620	-15.052069	-0.236043	104.669485	88.917519	-12.455751	-11.743421	19.619095	-30.649150	-0.885099	116.808846	89.377672	-12.719140	-2.876345
2.041667	-7.068456	-45.653798	98.560685	0.121642	0.111411	1.014069	114.556191	3.590582	7.596558	100.380161	1.751964	49.276864	-10.537483	0.000000	110.205765	-5.689215	-10.342267	97.172782	1.695985	49.711246	-0.010237	0.000000	-0.369109	-2.187785	-0.102223	-0.685472	-2.909754	-0.108611	-0.606409	-5.319380	-0.108611	-0.421854	-5.319380	-0.089445	-0.342754	-4.461331	-0.083056	-0.210909	-3.388879	-0.076667	-2.636506	-24.748660	-0.568531	0.000000	0.000000	15.568810	13.795882	-2.247079	16.917020	-13.852860	-0.534185	104.504078	88.991435	-13.004887	-12.588803	20.467861	-32.069306	-0.482136	117.364969	89.375425	-12.389176	-1.111996
2.062500	-8.665976	-46.287205	97.452272	0.123387	0.109788	1.014728	115.281724	4.158779	8.841020	100.759908	1.758592	48.971574	-10.759654	0.000000	110.256281	-6.398716	-11.622212	97.158171	1.695730	49.717231	0.187901	0.000000	-0.352728	-2.383100	-0.093614	-0.655051	-3.169523	-0.099465	-0.579496	-5.794270	-0.099465	-0.403132	-5.794270	-0.081912	-0.327543	-4.859618	-0.076061	-0.201549	-3.691422	-0.070211	-2.519499	-26.958107	-0.520654	0.000000	0.000000	15.679944	14.635590	-3.312030	16.565945	-13.116139	-0.617061	104.385634	89.051595	-13.653814	-13.372539	21.161130	-33.016805	-0.215215	117.830997	89.369637	-11.997514	0.400061
2.083333	-9.366897	-46.594552	96.803340	0.124257	0.108203	1.015514	115.758786	4.578831	9.300969	100.979038	1.762417	48.754190	-10.867963	0.000000	110.415766	-6.902244	-12.140376	97.263052	1.697561	49.763093	0.410507	0.000000	-0.338855	-2.468323	-0.069438	-0.629288	-3.282870	-0.073778	-0.556705	-6.001481	-0.073778	-0.387277	-6.001481	-0.060759	-0.314661	-5.033405	-0.056419	-0.193622	-3.823433	-0.052079	-2.420408	-27.922167	-0.386196	0.000000	0.000000	15.730721	15.075805	-3.966361	16.454007	-12.923414	-0.495555	104.308657	89.094651	-14.341229	-14.032673	21.684145	-33.373768	-0.053977	118.101279	89.364859	-11.620856	1.372326
2.104167	-9.093850	-46.530676	96.689454	0.124137	0.106682	1.016449	115.947243	4.789980	8.915286	101.045713	1.763580	48.630588	-10.846290	0.000000	110.679434	-7.145797	-11.841070	97.498435	1.701669	49.826798	0.649232	0.000000	-0.331232	-2.432355	-0.041448	-0.615131	-3.235032	-0.044039	-0.544181	-5.914028	-0.044039	-0.378565	-5.914028	-0.036267	-0.307582	-4.960059	-0.033677	-0.189266	-3.767718	-0.031086	-2.365958	-27.515288	-0.230523	0.000000	0.000000	15.735553	15.066647	-4.047358	16.656103	-13.318114	-0.074501	104.262260	89.121686	-15.087369	-14.487738	21.984084	-33.108086	-0.070448	118.223297	89.361183	-11.271646	1.919374
